<svg xmlns="http://www.w3.org/2000/svg" width="360" height="620" viewBox="0 0 360 620"><defs><marker id="arrow" markerWidth="8" markerHeight="8" refX="6" refY="4" orient="auto-start-reverse"><path d="M0 0L8 4L0 8" fill="none" stroke="#156b76" stroke-width="1.5"/></marker></defs><rect width="100%" height="100%" fill="#f8fbfc"/><g font-family="Arial,sans-serif" font-size="20" fill="#173e4b"><text x="15" y="28" font-size="20" font-weight="700">Contained: whole line</text><path d="M35 165L105 82H328L258 165Z" fill="#deeff0" stroke="#83adb4" stroke-width="2"/><text x="50" y="151">M</text><path d="M66 122L300 122" fill="none" stroke="#156b76" stroke-width="3" marker-start="url(#arrow)" marker-end="url(#arrow)"/><text x="15" y="228" font-size="20" font-weight="700">Piercing: only T</text><path d="M35 365L105 282H328L258 365Z" fill="#deeff0" stroke="#83adb4" stroke-width="2"/><text x="50" y="351">M</text><path d="M165 254L213 388" fill="none" stroke="#156b76" stroke-width="3" marker-start="url(#arrow)" marker-end="url(#arrow)"/><circle cx="189" cy="321" r="5" fill="#173e4b"/><text x="182" y="311">T</text><text x="15" y="428" font-size="20" font-weight="700">Parallel outside: none</text><path d="M35 565L105 482H328L258 565Z" fill="#deeff0" stroke="#83adb4" stroke-width="2"/><text x="50" y="551">M</text><path d="M70 458L305 458" fill="none" stroke="#156b76" stroke-width="3" marker-start="url(#arrow)" marker-end="url(#arrow)"/></g></svg>